<?xml version="1.0" encoding="UTF-8"?>
<svg width="120px" height="30px" viewBox="0 0 120 30" version="1.1" xmlns="http://www.w3.org/2000/svg" xmlns:xlink="http://www.w3.org/1999/xlink">
    <!-- Generator: Sketch 54.1 (76490) - https://sketchapp.com -->
    <title>logo mono</title>
    <desc>Created with Sketch.</desc>
    <g id="Product-Page" stroke="none" stroke-width="1" fill="none" fill-rule="evenodd">
        <g id="logo-mono" fill="#FFFFFF">
            <path d="M30.934992,20.5709032 L30.934992,5.45622581 L27.326832,5.45622581 L27.326832,20.5709032 C27.326832,25.7120323 31.461072,29.8800968 36.561552,29.8800968 C41.661552,29.8800968 45.795792,25.7120323 45.795792,20.5709032 L45.795792,5.45622581 L42.187632,5.45622581 L42.187632,20.5709032 C42.187632,23.7034839 39.668592,26.2428387 36.561552,26.2428387 C33.454032,26.2428387 30.934992,23.7034839 30.934992,20.5709032" id="Fill-1"></path>
            <polyline id="Fill-3" points="101.820528 9.12691935 101.820528 5.45627419 120.000048 5.45627419 108.071568 26.2714355 120.000048 26.2714355 120.000048 29.9086935 101.820528 29.9086935 113.748528 9.09353226 101.820528 9.09353226"></polyline>
            <path d="M59.424912,16.662629 L53.012592,16.662629 L53.012592,9.09343548 L59.424912,9.09343548 C61.498512,9.09343548 63.178992,10.7879516 63.178992,12.8777903 C63.178992,14.9681129 61.498512,16.662629 59.424912,16.662629 M59.424912,5.45617742 L49.404432,5.45617742 L49.404432,29.8800484 L53.012592,29.8800484 L53.012592,20.2998871 L59.424912,20.2998871 C63.490992,20.2998871 66.787632,16.9771452 66.787632,12.8777903 C66.787632,8.77891935 63.490992,5.45617742 59.424912,5.45617742" id="Fill-6"></path>
            <path d="M19.158576,12.8778871 C17.071536,9.7511129 13.202736,8.36627419 9.627216,9.4661129 C6.051216,10.5659516 3.608496,13.8920806 3.608496,17.6609516 C3.608496,21.4293387 6.051216,24.7554677 9.627216,25.8553065 C13.202736,26.9551452 17.071536,25.5703065 19.158576,22.4435323 L23.246256,22.4435323 C20.991216,27.7791774 15.322896,30.7791774 9.686256,29.6193387 C4.048656,28.4595 -0.000144,23.460629 -0.000144,17.6609516 C-0.000144,11.8607903 4.048656,6.86240323 9.686256,5.70256452 C15.322896,4.54272581 20.991216,7.54224194 23.246256,12.8778871 L19.158576,12.8778871 Z" id="Fill-8"></path>
            <polygon id="Fill-11" points="94.60416 29.8946129 98.21232 29.8946129 98.21232 5.45622581 94.60416 5.45622581"></polygon>
            <polygon id="Fill-13" points="85.247904 29.9085968 79.889664 15.6948871 74.531424 29.9085968 68.783424 5.45617742 72.491424 5.45617742 75.333024 17.5432742 79.889664 5.45617742 84.446304 17.5432742 87.287904 5.45617742 90.995904 5.45617742"></polygon>
            <polygon id="Fill-14" points="90.995952 3.63730645 90.141072 4.83870968e-05 69.638352 4.83870968e-05 68.783472 3.63730645"></polygon>
        </g>
    </g>
</svg>