<?xml version="1.0" encoding="UTF-8"?>
<svg width="48px" height="37px" viewBox="0 0 48 37" version="1.1" xmlns="http://www.w3.org/2000/svg" xmlns:xlink="http://www.w3.org/1999/xlink">
    <!-- Generator: Sketch 52 (66869) - http://www.bohemiancoding.com/sketch -->
    <title>mastercard</title>
    <desc>Created with Sketch.</desc>
    <g id="Category" stroke="none" stroke-width="1" fill="none" fill-rule="evenodd">
        <g id="mastercard" transform="translate(-4.000000, -1.000000)" fill-rule="nonzero">
            <polygon id="Rectangle-path" points="0.810267857 0 53.8459821 0 53.8459821 40 0.810267857 40"></polygon>
            <g id="Group-19" transform="translate(3.704082, 1.260504)">
                <path d="M8.94787599,36.4147068 L8.94787599,34.0115025 C8.9852891,33.6046748 8.84151952,33.201962 8.55437593,32.9092701 C8.26723235,32.6165781 7.86545314,32.4632007 7.45469868,32.4894731 C6.90996057,32.4679734 6.39210286,32.7249598 6.08258981,33.170381 C5.81321461,32.7227061 5.31574964,32.4604103 4.79119322,32.4894731 C4.33097658,32.4695568 3.89140068,32.6801739 3.62086506,33.0502208 L3.62086506,32.56958 L2.85409834,32.56958 L2.85409834,36.4147068 L3.62086506,36.4147068 L3.62086506,34.2117695 C3.58858017,33.9447841 3.67865343,33.6775033 3.86628374,33.4835213 C4.05391404,33.2895392 4.31931588,33.1893112 4.5894125,33.2104344 C5.15439851,33.2104344 5.47724766,33.5709151 5.47724766,34.2117695 L5.47724766,36.4147068 L6.24401438,36.4147068 L6.24401438,34.2117695 C6.21172949,33.9447841 6.30180275,33.6775033 6.48943305,33.4835213 C6.67706336,33.2895392 6.9424652,33.1893112 7.21256182,33.2104344 C7.77754783,33.2104344 8.10039697,33.5709151 8.10039697,34.2117695 L8.10039697,36.4147068 L8.94787599,36.4147068 Z M21.5389927,32.6096334 L20.1265277,32.6096334 L20.1265277,31.4480846 L19.359761,31.4480846 L19.359761,32.6096334 L18.5526381,32.6096334 L18.5526381,33.2905412 L19.359761,33.2905412 L19.359761,35.0929444 C19.359761,35.9741193 19.6826101,36.4948136 20.6511576,36.4948136 C21.0187036,36.4876029 21.3789056,36.3913529 21.7004173,36.2144398 L21.4582804,35.5335319 C21.2407275,35.6685489 20.9884173,35.7381093 20.7318698,35.7337989 C20.5600542,35.7478603 20.3911719,35.6832942 20.2732613,35.5584663 C20.1553507,35.4336385 20.1013162,35.2622104 20.1265277,35.0929444 L20.1265277,33.2504878 L21.5389927,33.2504878 L21.5389927,32.6096334 Z M28.7223862,32.4894731 C28.2977417,32.4807777 27.8995614,32.6935741 27.6731265,33.0502208 L27.6731265,32.56958 L26.9063598,32.56958 L26.9063598,36.4147068 L27.6731265,36.4147068 L27.6731265,34.2518229 C27.6731265,33.6109685 27.9959757,33.2104344 28.5206055,33.2104344 C28.6979602,33.2174779 28.8739489,33.24435 29.0452354,33.2905412 L29.2873722,32.56958 C29.1023893,32.5233167 28.9130215,32.4964671 28.7223862,32.4894731 Z M17.8665837,32.8900072 C17.3941264,32.6032628 16.8458791,32.4637412 16.2926941,32.4894731 C15.3241466,32.4894731 14.7188045,32.9300606 14.7188045,33.6910753 C14.7188045,34.3319298 15.1627221,34.6924104 16.0102011,34.8125706 L16.4137625,34.852624 C16.8576801,34.9327308 17.1401731,35.0929444 17.1401731,35.2932115 C17.1401731,35.5735853 16.8173239,35.7738523 16.2119818,35.7738523 C15.7490633,35.783421 15.2956443,35.6427905 14.9205852,35.3733183 L14.5170238,35.9741193 C15.0072948,36.2958593 15.5839371,36.4633666 16.1716256,36.4547602 C17.3015977,36.4547602 17.9069398,35.9340659 17.9069398,35.2131047 C17.9069398,34.4921434 17.4226661,34.2117695 16.5751871,34.0916093 L16.1716256,34.0515559 C15.8084204,34.0115025 15.4855712,33.8913423 15.4855712,33.6510219 C15.4855712,33.4107014 15.8084204,33.170381 16.2523379,33.170381 C16.6745567,33.1886584 17.0876961,33.2980025 17.4630222,33.4908083 L17.8665837,32.8900072 Z M29.6102214,34.4921434 C29.5768246,35.0327663 29.7786664,35.5616402 30.1645572,35.9446362 C30.550448,36.3276322 31.0833194,36.5279598 31.6280286,36.4948136 C32.1244661,36.5207193 32.613067,36.3638284 33.0001374,36.0542261 L32.596576,35.4534251 C32.3114847,35.6841725 31.9555348,35.8113532 31.5876724,35.8139057 C30.9139543,35.7610019 30.3944138,35.2029505 30.3944138,34.5321968 C30.3944138,33.8614431 30.9139543,33.3033917 31.5876724,33.2504878 C31.9555348,33.2530404 32.3114847,33.3802211 32.596576,33.6109685 L33.0001374,33.0101674 C32.613067,32.7005652 32.1244661,32.5436743 31.6280286,32.56958 C31.0900218,32.5054945 30.5514198,32.6842897 30.1605233,33.0567352 C29.7696268,33.4291807 29.5676557,33.9560025 29.6102214,34.4921434 L29.6102214,34.4921434 Z M24.162142,32.4894731 C23.03217,32.4894731 22.2654033,33.2905412 22.2654033,34.4921434 C22.2304518,35.0261199 22.4261129,35.5496273 22.8034771,35.9318042 C23.1808412,36.313981 23.7042455,36.5187095 24.2428543,36.4948136 C24.8122822,36.5065539 25.368299,36.3226053 25.8167439,35.9741193 L25.4131825,35.4133717 C25.0890026,35.6627083 24.6931911,35.803009 24.2832105,35.8139057 C23.6888924,35.8363675 23.1780644,35.399302 23.1128823,34.8125706 L25.9781685,34.8125706 L25.9781685,34.4921434 C25.9781685,33.2905412 25.2517579,32.4894731 24.162142,32.4894731 L24.162142,32.4894731 Z M24.162142,33.2104344 C24.42625,33.1983536 24.6837758,33.2944049 24.8745022,33.4761287 C25.0652286,33.6578525 25.1724322,33.9093148 25.1710456,34.1717161 L23.0725262,34.1717161 C23.1093035,33.6092496 23.5950207,33.1807398 24.162142,33.2104344 L24.162142,33.2104344 Z M13.7099009,34.4921434 L13.7099009,32.56958 L12.9431342,32.56958 L12.9431342,33.0502208 C12.6433993,32.6717635 12.176347,32.4624189 11.6920937,32.4894731 C10.5776896,32.4894731 9.67428657,33.3860991 9.67428657,34.4921434 C9.67428657,35.5981876 10.5776896,36.4948136 11.6920937,36.4948136 C12.176347,36.5218678 12.6433993,36.3125233 12.9431342,35.9340659 L12.9431342,36.4147068 L13.7099009,36.4147068 L13.7099009,34.4921434 Z M10.5621217,34.4921434 C10.6059769,33.8407279 11.1658743,33.3432545 11.8230478,33.3718001 C12.4802213,33.4003458 12.9941885,33.9444648 12.9805359,34.5971922 C12.9668834,35.2499195 12.430607,35.7723998 11.772806,35.7738523 C11.4348962,35.782022 11.1095169,35.6467611 10.8783379,35.4020201 C10.6471589,35.157279 10.5321294,34.8262945 10.5621217,34.4921434 L10.5621217,34.4921434 Z M40.3853117,32.4894731 C39.9606672,32.4807777 39.5624868,32.6935741 39.3360519,33.0502208 L39.3360519,32.56958 L38.5692852,32.56958 L38.5692852,36.4147068 L39.3360519,36.4147068 L39.3360519,34.2518229 C39.3360519,33.6109685 39.6589011,33.2104344 40.1835309,33.2104344 C40.3608857,33.2174779 40.5368744,33.24435 40.7081608,33.2905412 L40.9502977,32.56958 C40.7653147,32.5233167 40.575947,32.4964671 40.3853117,32.4894731 L40.3853117,32.4894731 Z M46.6001577,35.8539591 C46.6570437,35.8479656 46.7142306,35.8621551 46.7615823,35.8940125 C46.8019385,35.8940125 46.8422946,35.9340659 46.8826507,35.9741193 C46.9230069,36.0141727 46.963363,36.0542261 46.963363,36.0942796 C46.963363,36.134333 47.0037192,36.1743864 47.0037192,36.2544932 C47.009758,36.3109524 46.9954613,36.3677103 46.963363,36.4147068 C46.9230069,36.4547602 46.9230069,36.4948136 46.8826507,36.534867 C46.8422946,36.5749204 46.8019385,36.6149738 46.7615823,36.6149738 C46.7212262,36.6149738 46.68087,36.6550272 46.6001577,36.6550272 C46.5432718,36.6610207 46.4860849,36.6468313 46.4387332,36.6149738 C46.398377,36.5749204 46.3580209,36.5749204 46.3176647,36.534867 C46.2773086,36.4948136 46.2369525,36.4547602 46.2369525,36.4147068 C46.2369525,36.3746534 46.1965963,36.3346 46.1965963,36.2544932 C46.1905575,36.198034 46.2048542,36.141276 46.2369525,36.0942796 C46.2773086,36.0542261 46.2773086,36.0141727 46.3176647,35.9741193 C46.3580209,35.9340659 46.398377,35.8940125 46.4387332,35.8940125 C46.4790893,35.8940125 46.5598016,35.8539591 46.6001577,35.8539591 L46.6001577,35.8539591 Z M46.6001577,36.534867 C46.6445193,36.5401667 46.6889408,36.5254706 46.7212262,36.4948136 C46.7641517,36.4910883 46.798185,36.4573103 46.8019385,36.4147068 L46.8826507,36.3346 C46.8826507,36.2945466 46.9230069,36.2544932 46.9230069,36.2144398 C46.9283466,36.170411 46.9135395,36.1263227 46.8826507,36.0942796 C46.8788973,36.0516761 46.844864,36.017898 46.8019385,36.0141727 L46.7212262,35.9340659 C46.68087,35.9340659 46.6405139,35.8940125 46.6001577,35.8940125 C46.5557962,35.8887129 46.5113747,35.9034089 46.4790893,35.9340659 C46.4361638,35.9377912 46.4021304,35.9715693 46.398377,36.0141727 L46.3176647,36.0942796 C46.3176647,36.134333 46.2773086,36.1743864 46.2773086,36.2144398 C46.2719689,36.2584685 46.286776,36.3025568 46.3176647,36.3346 C46.3214182,36.3772035 46.3554515,36.4109815 46.398377,36.4147068 L46.4790893,36.4948136 C46.5113747,36.5254706 46.5557962,36.5401667 46.6001577,36.534867 L46.6001577,36.534867 Z M46.6405139,36.0942796 C46.6848754,36.0889799 46.7292969,36.103676 46.7615823,36.134333 C46.8019385,36.1743864 46.8019385,36.1743864 46.8019385,36.2144398 C46.8019385,36.2544932 46.8019385,36.2544932 46.7615823,36.2945466 C46.7398147,36.3162977 46.7114631,36.3303672 46.68087,36.3346 L46.8019385,36.4547602 L46.68087,36.4547602 L46.5598016,36.3346 L46.5194455,36.3346 L46.5194455,36.4547602 L46.4387332,36.4547602 L46.4387332,36.0942796 L46.6405139,36.0942796 Z M46.5598016,36.134333 L46.5598016,36.2144398 L46.68087,36.2144398 L46.68087,36.134333 L46.5598016,36.134333 L46.5598016,36.134333 Z M37.3989571,34.4921434 L37.3989571,32.56958 L36.6321903,32.56958 L36.6321903,33.0502208 C36.3324555,32.6717635 35.8654032,32.4624189 35.3811499,32.4894731 C34.2667458,32.4894731 33.3633427,33.3860991 33.3633427,34.4921434 C33.3633427,35.5981876 34.2667458,36.4948136 35.3811499,36.4948136 C35.8654032,36.5218678 36.3324555,36.3125233 36.6321903,35.9340659 L36.6321903,36.4147068 L37.3989571,36.4147068 L37.3989571,34.4921434 Z M34.291534,34.4921434 C34.3353892,33.8407279 34.8952865,33.3432545 35.5524601,33.3718001 C36.2096336,33.4003458 36.7236008,33.9444648 36.7099482,34.5971922 C36.6962957,35.2499195 36.1600193,35.7723998 35.5022183,35.7738523 C34.7354516,35.8139057 34.291534,35.2131047 34.291534,34.4921434 Z M45.2280489,34.4921434 L45.2280489,31.0475506 L44.4612821,31.0475506 L44.4612821,33.0502208 C44.1615473,32.6717635 43.694495,32.4624189 43.2102417,32.4894731 C42.0958376,32.4894731 41.1924345,33.3860991 41.1924345,34.4921434 C41.1924345,35.5981876 42.0958376,36.4948136 43.2102417,36.4948136 C43.694495,36.5218678 44.1615473,36.3125233 44.4612821,35.9340659 L44.4612821,36.4147068 L45.2280489,36.4147068 L45.2280489,34.4921434 Z M42.0802697,34.4921434 C42.1241248,33.8407279 42.6840222,33.3432545 43.3411958,33.3718001 C43.9983693,33.4003458 44.5123365,33.9444648 44.4986839,34.5971922 C44.4850313,35.2499195 43.948755,35.7723998 43.290954,35.7738523 C42.9530442,35.782022 42.6276648,35.6467611 42.3964859,35.4020201 C42.1653069,35.157279 42.0502774,34.8262945 42.0802697,34.4921434 L42.0802697,34.4921434 Z" id="_Compound_Path_" fill="#000000"></path>
                <polygon id="Rectangle-path" fill="#FF5F00" points="16.9787485 3.41070145 30.9823303 3.41070145 30.9823303 26.0809284 16.9787485 26.0809284"></polygon>
                <path d="M18.4315697,14.7458149 C18.4327897,10.3275152 20.4693083,6.15225027 23.9603613,3.41070145 C18.9572317,-0.493520471 11.976197,-0.711273313 6.73592772,2.87343591 C1.49565839,6.45814513 -0.783748755,13.0106852 1.11190508,19.040637 C3.00755892,25.0705888 8.63690686,29.1739929 15.0012975,29.1650406 C18.2523146,29.1673116 21.4089763,28.0806469 23.9603613,26.0809284 C20.4693083,23.3393796 18.4327897,19.1641147 18.4315697,14.7458149 L18.4315697,14.7458149 Z" id="_Path_" fill="#EB001B"></path>
                <path d="M46.0755279,23.6777241 L46.0755279,23.1970833 L46.2773086,23.1970833 L46.2773086,23.1169765 L45.7930349,23.1169765 L45.7930349,23.1970833 L45.9948156,23.1970833 L45.9948156,23.6777241 L46.0755279,23.6777241 Z M47.0440753,23.6777241 L47.0440753,23.1169765 L46.8826507,23.1169765 L46.7212262,23.5175105 L46.5598016,23.1169765 L46.398377,23.1169765 L46.398377,23.6777241 L46.5194455,23.6777241 L46.5194455,23.2371367 L46.68087,23.5976173 L46.8019385,23.5976173 L46.963363,23.2371367 L46.963363,23.6777241 L47.0440753,23.6777241 Z" id="Shape" fill="#F79E1B"></path>
                <path d="M47.4879929,14.7458149 C47.4818114,20.2591006 44.3086033,25.2862833 39.3129316,27.6972273 C34.3172599,30.1081713 28.3737152,29.4807934 24.0007175,26.0809284 C27.4926852,23.3401189 29.5294009,19.1643683 29.5294009,14.7458149 C29.5294009,10.3272616 27.4926852,6.15151099 24.0007175,3.41070145 C28.3737152,0.0108364448 34.3172599,-0.616541467 39.3129316,1.79440253 C44.3086033,4.20534652 47.4818114,9.23252928 47.4879929,14.7458149 L47.4879929,14.7458149 Z" id="Shape" fill="#F79E1B"></path>
            </g>
        </g>
    </g>
</svg>