<?xml version="1.0" encoding="UTF-8"?>
<svg width="53px" height="18px" viewBox="0 0 53 18" version="1.1" xmlns="http://www.w3.org/2000/svg" xmlns:xlink="http://www.w3.org/1999/xlink">
    <!-- Generator: Sketch 52 (66869) - http://www.bohemiancoding.com/sketch -->
    <title>visa</title>
    <desc>Created with Sketch.</desc>
    <defs>
        <linearGradient x1="3.061617e-15%" y1="50%" x2="100%" y2="50%" id="linearGradient-1">
            <stop stop-color="#1C1C62" offset="0%"></stop>
            <stop stop-color="#132B99" offset="100%"></stop>
        </linearGradient>
    </defs>
    <g id="Category" stroke="none" stroke-width="1" fill="none" fill-rule="evenodd">
        <g id="visa" transform="translate(-3.000000, -11.000000)" fill-rule="nonzero">
            <polygon id="Rectangle-path" points="0.626899696 3.55271368e-15 58.3016717 3.55271368e-15 58.3016717 40 0.626899696 40"></polygon>
            <path d="M23.008192,12.1667192 L16.116939,28.4494353 L11.6094528,28.4494353 L8.22883818,15.4318549 C8.01213211,14.6155709 7.83876726,14.3577971 7.23199027,14.0140986 C5.89670273,13.3770433 4.48347625,12.9149001 3.02789256,12.6393046 L3.11457498,12.1667192 L10.3525576,12.1667192 C11.3309171,12.1710964 12.1594851,12.8829109 12.3029123,13.8422493 L14.079902,23.2509956 L18.5007058,12.1667192 L23.008192,12.1667192 Z M40.6480659,23.1221086 C40.6480659,18.8258775 34.6669784,18.5681036 34.7103197,16.6777619 C34.7103197,16.0762895 35.2737554,15.4748172 36.5306506,15.3029679 C37.9726854,15.1694975 39.4244483,15.4217059 40.7347483,16.0333272 L41.471549,12.5963423 C40.1990159,12.1119743 38.8472812,11.8643809 37.4841573,11.865983 C33.2800596,11.865983 30.3328571,14.1000232 30.2895159,17.2362719 C30.2461747,19.5991991 32.4132353,20.8880684 34.0168602,21.66139 C35.6204851,22.4347116 36.2272621,22.9932217 36.2272621,23.6806187 C36.2272621,24.7546765 34.8836845,25.2702242 33.6701305,25.2702242 C32.1451077,25.3120133 30.63571,24.9564802 29.292668,24.2391287 L28.5125261,27.8050006 C30.0133222,28.4021135 31.6198295,28.6943085 33.2367184,28.6642468 C37.7008634,28.7072091 40.6047247,26.5161312 40.6480659,23.1221086 L40.6480659,23.1221086 Z M51.7434166,28.4494353 L55.687467,28.4494353 L52.2635112,12.1667192 L48.6228492,12.1667192 C47.8238741,12.1572311 47.1009808,12.6349468 46.8025182,13.3696639 L40.3880186,28.4494353 L44.8521636,28.4494353 L45.7189879,26.0005835 L51.1799808,26.0005835 L51.7434166,28.4494353 Z M46.9758831,22.6924855 L49.2296262,16.5918373 L50.5298626,22.6924855 L46.9758831,22.6924855 Z M29.0759619,12.1667192 L25.5653236,28.4494353 L21.3178847,28.4494353 L24.828523,12.1667192 L29.0759619,12.1667192 Z" id="Shape" fill="url(#linearGradient-1)"></path>
        </g>
    </g>
</svg>